<svg version="1" xmlns="http://www.w3.org/2000/svg" width="933.333" height="933.333" viewBox="0 0 700.000000 700.000000"><path d="M259.6 47.1c-22.5 1.3-41.4 4.5-65.1 11-11.5 3.2-29.4 9.5-30.9 11-.5.5 3.6 11.9 10.1 27.6 6.1 14.7 15.7 37.9 21.3 51.5 6.7 16.4 10.7 24.8 11.7 24.8.8 0 2.2-.4 3.2-.9 1-.6 7.1-2.6 13.6-4.6 13.2-4 31.3-7.1 45.3-7.8l9.2-.4V216h5.3c14.4 0 35.8 5.5 51 13.1 28.7 14.4 49.8 35.4 63.3 63.1 1.6 3.2 3.1 5.8 3.4 5.8.4 0 12-4.8 26-10.6 13.9-5.8 25.6-10.2 26-9.7 1.3 1.5 6 15.3 8.4 25.1 3 12 5.6 29.9 5.6 39.2v7h-55.7l-.7 3.1c-.3 1.7-.6 5.1-.6 7.4 0 6.7-2.8 21.2-6 30.7-10.9 32.6-34.3 60.4-64.2 76.3-14.6 7.7-38.8 14.5-52.3 14.5-2.7 0-6 .3-7.2.6l-2.3.6v113.1l-13.7-.6c-23-1-50.2-6.5-70.6-14.2-5-1.9-9.5-3.1-9.9-2.7-.7.7-20.7 48.5-21.1 50.4-.4 2.1 27.9 11.6 48.1 16.2 15.5 3.6 36.6 6.5 53 7.2l14.2.7V595h7.8c10.8 0 31.4-2.6 45.1-5.6 10.8-2.4 36.9-10.4 39.9-12.3 1-.6-1.1-6.7-9.2-26.3-5.8-14.1-10.6-26-10.6-26.6 0-.5 3-2.2 6.7-3.7C387 508 421 478 438.9 448.7c10-16.4 17.9-35.1 22.6-53.7 2.8-11.1 5.5-30.4 5.5-39.6V349h57.3l-.6-12.5c-1.2-23.7-6.6-50.6-14.1-70.7-2-5.2-3.6-10-3.6-10.5s6.9-3.8 15.3-7.2c8.3-3.5 20-8.3 25.9-10.8l10.7-4.4-5.5-11.6c-13.1-28-29.8-52.9-50.6-75.9l-9.3-10.2-40.2 40.1-40.2 40.1-6.6-6c-14.9-13.1-30.4-23.6-46.3-31.2-5.4-2.5-9.1-4.9-8.9-5.5.3-.7 5.1-12.4 10.8-26 8.4-20.4 10-25 8.8-25.8-.8-.5-8.1-3.1-16.4-5.8-22.6-7.3-50-12.1-69.6-12.1H277V74.5c0-26.5-.1-28.5-1.7-28.4-1 .1-8.1.6-15.7 1zM524.5 350.2c-.2.7-.6 6.9-.8 13.8-.9 21.5-5.7 45.8-13.7 68-3.5 10-3.7 11.1-2.2 11.9.9.5 10.5 4.5 21.2 8.9s21.6 8.9 24.2 10.1l4.7 2 3.1-8.2c10.9-28.4 17.6-61.4 19.5-96l.6-11.7H553c-21.6 0-28.2.3-28.5 1.2zM443 531.7c-17.4 15.6-41.4 31.6-60.9 40.5-5 2.3-9.1 4.6-9.1 5.2 0 1.2 20 49.7 21 50.9 1.2 1.4 36.7-17.2 50.6-26.5 15.6-10.4 23.4-16.5 37.8-29.3l9.8-8.8-19.8-19.8c-11-11-20.1-19.9-20.4-19.9-.3 0-4.3 3.5-9 7.7z"/></svg>