<svg version="1" xmlns="http://www.w3.org/2000/svg" width="1333.333" height="1333.333" viewBox="0 0 1000.000000 1000.000000"><path d="M321 2c-44.6 2-91.1 10.7-133.9 25-13.9 4.6-30.3 10.8-31.4 11.9-.4.4 7.4 20.5 17.4 44.7 38.9 94.6 52.3 126.9 52.5 127.2.1.2 5.8-1.7 12.7-4.2 30.3-11 60.2-16.9 92-18.3l14.7-.6V281h5.9c16.8 0 41.8 4.3 61.1 10.5 14.6 4.7 38.5 16.4 51.7 25.2 34.7 23.2 59.6 51 77.1 86.3 3.7 7.4 6.7 13.6 6.8 13.7 0 .2 19.1-7.6 42.3-17.2 23.3-9.7 42.8-17.7 43.4-17.8 1.3-.3 6.6 13.6 11.7 30.8 7.1 23.5 11.2 48.2 12.6 74.7l.7 13.8H564v6.8c0 8.8-2.5 29.1-5.1 40.6-5.1 23.4-16.9 51.3-30.1 71.3-8 12.1-11.3 16.4-21 27.4-3.8 4.2-6.8 8.1-6.8 8.5 0 1.4 64.7 65.7 65.7 65.3 1.6-.7 16.3-17 23.9-26.4 40.6-51 63.1-112.2 66.9-181.8l.7-11.7h46.3c25.5 0 46.5-.3 46.7-.8.8-1.5-1.1-36.2-2.6-48.4-4.2-33.6-13.2-69.6-24.8-98.7-1.6-4.1-2.5-7.7-2.1-8.2.4-.4 19.5-8.5 42.3-17.9 22.8-9.5 41.8-17.4 42.2-17.6.8-.5-5.9-15.9-14.3-32.6-22-44-51.9-86.3-84.7-120.1l-8.6-8.8-66 65.9-66.1 66-10.5-9.5c-25-22.6-55.2-42.6-82-54.4-5.2-2.3-9.6-4.2-9.7-4.4-.2-.1 22.7-55.8 34-82.6l1.5-3.7-11.6-4.5c-37.7-14.6-83.4-24.1-122.7-25.3-9.3-.3-17.9-.7-19-.9-2-.4-2-1.2-2-46.7V1.5l-3.5-.1c-1.9-.1-10.9.2-20 .6zM752 508.7c0 9.8-2.5 37.9-4.5 52.1-3.9 26.3-11.8 56.8-21.4 82.4l-4.8 12.7 7.1 3c64.2 26.6 77.6 32.1 78.3 32.1.9 0 2.6-4.2 10-25 11.9-33.4 20.2-69.6 24.8-107 1.4-11.6 3.5-44.1 3.5-53.8V501h-93v7.7zM423 705.2c-14.2 6.3-43.8 12.5-65 13.6l-12.5.7.4 93.5c.2 51.4.5 93.7.6 93.9.7.6 39-2 51-3.5 31.4-4 65.3-12.7 96.8-24.8l6.8-2.6 1.8 4.2c1 2.4 8.9 21.6 17.6 42.8 8.7 21.2 16 38.7 16.2 38.9.9 1.2 38.7-17 56.3-27.2 20.9-12 39.9-24.7 58.5-39.1 12.2-9.5 33.7-28.1 41-35.5l6-6.1-66-65.9-66-66-10.5 9.6c-12.5 11.3-32.6 26.5-46.5 35.2-12.2 7.6-42.1 22.5-43.8 21.8-.6-.3-9.1-19.7-18.7-43.1-9.6-23.4-17.9-42.5-18.5-42.5-.5 0-3 .9-5.5 2.1zM188.2 880.8c-8.6 20.3-33.2 80.3-33.2 81 0 2.3 42.7 16.9 67.7 23.2 37.4 9.3 79.1 15 110.1 15H345v-92.6l-20.2-1.2c-46.7-2.9-86.6-11.4-128-27.5l-6.6-2.5-2 4.6z"/></svg>