<?xml version="1.0" encoding="utf-8"?>
<!-- Generator: Adobe Illustrator 22.0.1, SVG Export Plug-In . SVG Version: 6.00 Build 0)  -->
<svg version="1.1" id="Camada_1" xmlns="http://www.w3.org/2000/svg" xmlns:xlink="http://www.w3.org/1999/xlink" x="0px" y="0px"
	 viewBox="0 0 2000 1000" style="enable-background:new 0 0 2000 1000;" xml:space="preserve">
<style type="text/css">
	.st0{fill:#5BF067;}
	.st1{fill:#009AD6;}
	.st2{fill:#3DACCB;}
	.st3{fill:#0063AC;}
	.st4{fill:#00467A;}
	.st5{fill:#008F3C;}
	.st6{fill:#00B037;}
</style>
<g>
	<g>
		<path class="st0" d="M547.9,146.3l-66.3,66.3c-37.4-37.4-82.1-67.5-131.7-88.1l35.9-86.6C446.9,63.2,501.9,100.3,547.9,146.3z"/>
		<path class="st0" d="M569.8,655.2c-20.6,49.6-50.7,94.3-88.1,131.7l-66.3-66.3c28.8-28.8,52-63.1,67.8-101.3L569.8,655.2z"/>
		<path class="st0" d="M194.5,718.4v93.7c-42.4,0-82.7-8.4-119.6-23.7l35.9-86.6C136.6,712.5,164.9,718.4,194.5,718.4z"/>
	</g>
	<g>
		<path class="st1" d="M694.3,499.7c0,67.8-13.5,132.4-37.9,191.3l-86.6-35.9c19.9-47.9,30.8-100.4,30.8-155.4H694.3z"/>
		<path class="st1" d="M193.9-0.1v93.4c-54.9,0-107.2,10.9-155,30.7L3.2,37.7C62,13.4,126.4-0.1,193.9-0.1z"/>
		<path class="st1" d="M656.4,308.4l-86.6,35.9l-86.6,35.9c-15.8-38.2-39-72.5-67.8-101.3l132.5-132.5
			C594,192.3,631.1,247.3,656.4,308.4z"/>
		<path class="st1" d="M415.4,720.6c-28.8,28.8-63.1,52-101.3,67.8l-35.9-86.6c26.7-11.1,50.8-27.3,70.9-47.4L415.4,720.6z"/>
		<path class="st1" d="M313.1,210.4l-35.8,86.3c-25.7-10.7-53.9-16.5-83.4-16.5v-93.4C236.2,186.8,276.4,195.2,313.1,210.4z"/>
	</g>
	<g>
		<g>
			<path class="st2" d="M136.9,980.2c1.9,0,1.9-3,0-3C134.9,977.2,134.9,980.2,136.9,980.2L136.9,980.2z"/>
		</g>
	</g>
	<g>
		<path class="st3" d="M194.5,905.8v93.7c-67.8,0-132.4-13.5-191.3-37.9L39.1,875C87,894.8,139.5,905.8,194.5,905.8z"/>
		<path class="st3" d="M348.9,124.1l-35.8,86.3c-36.7-15.2-77-23.6-119.2-23.6c-42.2,0-82.5,8.4-119.2,23.6L39,124.1
			c47.7-19.8,100.1-30.7,155-30.7C248.8,93.3,301.2,104.3,348.9,124.1z"/>
		<path class="st3" d="M506.9,499.7c0,42.4-8.4,82.7-23.7,119.6c-15.8,38.2-39,72.5-67.8,101.3l-66.3-66.3
			c20.1-20.1,36.4-44.2,47.4-70.9c10.7-25.8,16.6-54.1,16.6-83.7H506.9z"/>
		<path class="st3" d="M547.9,853.1c-46,46-101,83.1-162.1,108.5L350,875c49.6-20.6,94.3-50.7,131.7-88.1L547.9,853.1z"/>
	</g>
	<g>
		<path class="st4" d="M600.6,499.7h-93.7c0-42.4-8.4-82.7-23.7-119.6l86.6-35.9C589.6,392.1,600.6,444.6,600.6,499.7z"/>
		<path class="st4" d="M483.2,380.1L396.6,416c-11.1-26.7-27.3-50.8-47.4-70.9l0,0c-20-20-45.2-37.3-71.8-48.3l35.8-86.3
			c38,15.7,73.6,39.9,102.2,68.4l0,0C444.2,307.6,467.4,342,483.2,380.1z"/>
		<path class="st4" d="M350,875c-47.9,19.8-100.4,30.8-155.4,30.8V718.4c29.6,0,57.9-5.9,83.7-16.6L350,875z"/>
	</g>
</g>
<g>
	<path class="st3" d="M982.7,167.9c-10.6-17.7-39.9-34.6-73.7-34.6c-43.5,0-64.3,18.2-64.3,41.3c0,27.1,31.9,34.6,69.2,39
		c64.8,8,125.1,24.8,125.1,98.9c0,69.2-61.2,98.9-130.4,98.9c-63.5,0-112.3-19.5-135.3-76.3l48.8-25.3
		c13.8,34.2,49.7,49.3,87.4,49.3c36.8,0,71.4-12.9,71.4-46.6c0-29.3-30.6-41.3-71.9-45.7c-63.5-7.5-122-24.4-122-94.1
		c0-63.9,63-90.1,120.2-90.5c48.4,0,98.5,13.8,122,61.7L982.7,167.9z"/>
	<path class="st3" d="M1139.4,123.1c0,42.2-63.9,42.2-63.9,0C1075.5,81,1139.4,81,1139.4,123.1z M1080.4,183.9v219.6h54.1V183.9
		H1080.4z"/>
	<path class="st3" d="M1355,162.6l39.9,30.2l-24.4,31.1c16.9,19.1,23.1,40.8,23.1,64.8c0,27.1-10.2,65.2-46.1,81.6
		c36.4,18.2,45.3,44.4,45.3,72.3c0,60.3-46.1,97.6-109.6,97.6c-63.5,0-110.9-38.6-110.9-97.6h53.7c0,28.4,26.2,47,57.2,47
		c31.1,0,55.5-16.9,55.5-47c0-30.2-28.4-43.9-55.5-43.9c-68.3,0-110.9-41.7-110.9-110s49.7-110.9,110.9-110.9
		c17.3,0,35.1,2.2,50.1,12.4L1355,162.6z M1225.9,288.6c0,38.2,25.7,60.8,57.2,60.8c31.1,0,56.8-23.1,56.8-60.8
		c0-37.7-25.7-61.7-56.8-61.7C1251.6,227,1225.9,250.5,1225.9,288.6z"/>
	<path class="st3" d="M1601.7,184.8h51.9v218.7h-51l-2.7-31.9c-12.4,25.7-46.6,38.2-71,38.6c-64.8,0.4-112.7-39.5-112.7-116.3
		c0-75.4,50.1-114.9,114-114.5c29.3,0,57.2,13.8,69.7,35.5L1601.7,184.8z M1470.4,294c0,41.7,28.8,66.6,64.8,66.6
		c85.2,0,85.2-132.7,0-132.7C1499.2,227.8,1470.4,252.3,1470.4,294z"/>
	<path class="st3" d="M960.6,691.7h51.9v218.7h-51l-2.7-31.9c-12.4,25.7-46.6,38.2-71,38.6c-64.8,0.4-112.7-39.5-112.7-116.3
		c0-75.4,50.1-114.9,114-114.5c29.3,0,57.2,13.8,69.7,35.5L960.6,691.7z M829.2,800.9c0,41.7,28.8,66.6,64.8,66.6
		c85.2,0,85.2-132.7,0-132.7C858.1,734.7,829.2,759.1,829.2,800.9z"/>
	<path class="st3" d="M1425.1,752.5c1.3,78.5-46.6,158-155.3,158c-38.2,0-83.9,0-122,0V599.9c38.2,0,83.9,0,122,0
		C1376.3,599.9,1423.8,675.7,1425.1,752.5z M1205.9,854.1h63.9c70.5,0,98.5-51.5,97.2-102.1c-1.3-48.4-29.7-96.7-97.2-96.7h-63.9
		V854.1z"/>
	<path class="st3" d="M1518.7,630c0,42.2-63.9,42.2-63.9,0C1454.8,587.9,1518.7,587.9,1518.7,630z M1459.7,690.8v219.6h54.1V690.8
		H1459.7z"/>
	<path class="st3" d="M1750.3,882.5c-25.3,24.8-51.9,34.6-84.3,34.6c-63.5,0-116.3-38.2-116.3-115.8c0-77.6,52.8-115.8,116.3-115.8
		c31.1,0,55,8.9,79,32.4l-34.2,35.9c-12.9-11.5-28.8-17.3-43.9-17.3c-36.4,0-63,26.6-63,64.8c0,41.7,28.4,63.9,62.1,63.9
		c17.3,0,34.6-4.9,47.9-18.2L1750.3,882.5z"/>
	<path class="st3" d="M1947.8,691.7h51.9v218.7h-51l-2.7-31.9c-12.4,25.7-46.6,38.2-71,38.6c-64.8,0.4-112.7-39.5-112.7-116.3
		c0-75.4,50.1-114.9,114-114.5c29.3,0,57.2,13.8,69.7,35.5L1947.8,691.7z M1816.5,800.9c0,41.7,28.8,66.6,64.8,66.6
		c85.2,0,85.2-132.7,0-132.7C1845.3,734.7,1816.5,759.1,1816.5,800.9z"/>
</g>
<text transform="matrix(1 0 0 1 1685.6249 -744.1855)"><tspan x="0" y="0" class="st3" style="font-family:'NexaBold'; font-size:418.1396px;">Siga</tspan><tspan x="0" y="477.7" class="st3" style="font-family:'NexaBold'; font-size:418.1396px;">a Dica</tspan></text>
<rect x="795.9" y="-362.5" class="st4" width="138" height="138"/>
<rect x="933.9" y="-362.5" class="st3" width="138" height="138"/>
<rect x="1071.9" y="-362.5" class="st1" width="138" height="138"/>
<rect x="795.9" y="-224.5" class="st5" width="138" height="138"/>
<rect x="933.9" y="-224.5" class="st6" width="138" height="138"/>
<rect x="1071.9" y="-224.5" class="st0" width="138" height="138"/>
</svg>
