<?xml version="1.0" encoding="utf-8"?>
<!-- Generator: Adobe Illustrator 22.0.0, SVG Export Plug-In . SVG Version: 6.00 Build 0)  -->
<svg version="1.1" id="Camada_1" xmlns="http://www.w3.org/2000/svg" xmlns:xlink="http://www.w3.org/1999/xlink" x="0px" y="0px"
	 viewBox="0 0 2000 1000" style="enable-background:new 0 0 2000 1000;" xml:space="preserve">
<style type="text/css">
	.st0{fill:#FFFFFF;}
</style>
<g>
	<g>
		<path class="st0" d="M194.1,718.4v-0.5c-28.8-0.1-56.7-5.6-83.1-16.6l-0.5-0.2l-36.3,87.5l0.5,0.2c37.9,15.7,78,23.7,119.4,23.7
			v-0.5c-42.3,0-82.4-8.4-119.2-23.7l35.9-86.6C136.5,712.5,164.6,718.3,194.1,718.4z"/>
		<path class="st0" d="M482,787.2l65.9,65.9c-46,46-101,83.1-162.1,108.5l-35.6-86.1l-0.4-0.9l-0.5,0.2l0.2,0.5
			c-47.7,19.6-99.9,30.6-154.5,30.6v-0.5h-0.4v-92.7h-0.5v-0.5c-42.3,0-82.4-8.4-119.2-23.7l35.9-86.6
			c25.7,10.7,53.8,16.5,83.3,16.6v-0.5h0.9v0.5c29.5-0.1,57.6-6,83.3-16.6l35.9,86.5c38.2-15.8,72.4-39,101.2-67.7l-66.3-66.3
			c20.1-20.1,36.4-44.2,47.4-70.9c10.7-25.8,16.6-54.1,16.6-83.7h93.3v0.5c-0.1,41.2-8,81.1-23.6,118.8l-0.2,0.5l86.6,35.9l0.5,0.2
			c-20.5,49.3-50.5,93.7-87.6,130.9l0.3,0.4C482.3,786.9,482.2,787,482,787.2L482,787.2z"/>
	</g>
	<g>
		<path class="st0" d="M600.6,499.7L600.6,499.7c0,55-10.9,107.5-30.8,155.4l86.6,35.9c24.4-58.9,37.9-123.5,37.9-191.3v0H600.6z"/>
		<path class="st0" d="M600.1,499.2v1c-0.1,53.5-10.3,105.4-30.6,154.3c-0.1,0.1-0.1,0.3-0.2,0.5l-0.2,0.5l0.5,0.2l0.5,0.2
			l86.6,35.9l0.2-0.5c25.2-60.8,37.9-125.2,37.9-191.5v-0.5H600.1z M570.5,654.8c20.3-49,30.6-101,30.6-154.6h92.7
			c-0.1,65.8-12.7,129.8-37.7,190.1L570.5,654.8z"/>
	</g>
	<g>
		<path class="st0" d="M482.3,786.8c-0.1,0.1-0.2,0.2-0.3,0.3l0,0l65.9,65.9c-46,46-101,83.1-162.1,108.5l-35.6-86.1l-0.4-0.9
			l-0.5,0.2l0.4,0.9l35.8,86.6l0.5-0.2c60.9-25.3,115.5-61.9,162.3-108.6l0.4-0.4L482.3,786.8z"/>
	</g>
	<g>
		<rect x="194.6" y="905.3" class="st0" width="0.4" height="0.5"/>
		<path class="st0" d="M349.8,874.5l0.2,0.5c-0.2,0.1-0.3,0.1-0.5,0.2l-0.2-0.5L349.8,874.5z"/>
		<path class="st0" d="M569.8,655.1c-0.1,0.2-0.1,0.3-0.2,0.5l-0.5-0.2l-86.6-35.9l0.2-0.5c15.6-37.7,23.6-77.7,23.6-118.8v-0.5h0.5
			v0.5c-0.1,42.2-8.5,82.3-23.7,119l86.1,35.7L569.8,655.1z"/>
		<path class="st0" d="M570,654.6l-0.5-0.2l-85.7-35.5c15.5-37.7,23.5-77.6,23.5-118.7v-1h-94.8v0.5c0,28.9-5.6,57-16.6,83.5
			c-10.9,26.5-26.8,50.3-47.3,70.7l-0.4,0.3l66.3,66.3c-29,29-62.8,51.5-100.2,67.1l-35.8-86.5l-0.5,0.2
			c-26.4,10.9-54.3,16.5-83.1,16.6v0.5c29.5-0.1,57.6-6,83.3-16.6l35.9,86.5c38.2-15.8,72.4-39,101.2-67.7l-66.3-66.3
			c20.1-20.1,36.4-44.2,47.4-70.9c10.7-25.8,16.6-54.1,16.6-83.7h93.3v0.5c-0.1,41.2-8,81.1-23.6,118.8l-0.2,0.5l86.6,35.9l0.5,0.2
			c-20.5,49.3-50.5,93.7-87.6,130.9l0.3,0.4c37.7-37.8,67.2-81.9,87.7-131.1c0.1-0.2,0.1-0.3,0.2-0.5l0.2-0.5L570,654.6z
			 M349.8,874.5l-0.5,0.2l0.2,0.5c-47.7,19.6-99.9,30.6-154.5,30.6v-0.5h-0.4v-92.7h-0.5v93.7h0.9c53.4,0,105.5-10.4,154.7-30.6
			c0.2-0.1,0.3-0.1,0.5-0.2L349.8,874.5z"/>
	</g>
	<g>
		<rect x="506.9" y="499.2" class="st0" width="93.7" height="0.5"/>
		<path class="st0" d="M481.3,213c-0.1-0.1-0.2-0.2-0.3-0.3l-65.5,65.5c-29.2-29-64.4-52.5-101.7-68l-0.2,0.5
			c37.9,15.7,73.4,39.8,101.9,68.3L481.3,213L481.3,213z M657,308.7l-0.2-0.5c-25.2-60.9-61.6-115.3-108.3-161.9l-0.3,0.4
			c46,45.8,83,100.7,108.2,161.7l-86.6,35.9c19.7,47.7,30.7,100,30.8,154.9h-93.7c-0.1-42.2-8.5-82.3-23.7-119l0,0c0,0,0-0.1,0-0.1
			L396.6,416c-11.1-26.7-27.3-50.8-47.4-70.9c-10-10-21.3-19.3-33.4-27.5c-12-8.1-24.9-15.2-38-20.6l-0.2,0.4l-0.5-0.2
			c-0.1,0-0.2-0.1-0.3-0.1l0,0l0.5,0.2c13,5.4,25.9,12.4,38.3,20.7c12.1,8.2,23.3,17.4,33.3,27.5c20.3,20.3,36.2,44.1,47.3,70.7
			l0.2,0.5l86.6-35.9l0,0.1l0,0c15.5,37.6,23.4,77.4,23.5,118.4v1h94.7v-1c-0.1-53.4-10.4-105.4-30.6-154.6L657,308.7z"/>
	</g>
	<g>
		<path class="st0" d="M548.3,146C501.5,99.2,446.9,62.7,386,37.4l-0.5-0.2l-36.3,87.5l0.5,0.2c49.3,20.5,93.4,50,131.2,87.7
			l0.3-0.4C444,175,399.4,145,349.9,124.5l35.9-86.6c61,25.2,115.9,62.2,161.8,108.1l0.3-0.3L548.3,146c0.1,0.2,0.2,0.3,0.3,0.4
			l0.1-0.1L548.3,146z"/>
	</g>
	<g>
		<path class="st0" d="M349.1,123.6C300,103.2,248,92.9,194.8,92.9h-0.3v0.5c54.7-0.1,106.9,10.9,154.5,30.7L313.3,210l0.1,0
			c0.1,0.1,0.2,0.1,0.3,0.1l35.8-86.3L349.1,123.6z M193.9,186.8c-42.2,0-82.5,8.4-119.2,23.6l-35.6-86c0,0,0,0,0,0l-0.4,0.2
			l35.6,86l0.2,0.5l0.5-0.2c37.6-15.6,77.5-23.5,118.5-23.6v93.4h0.5c28.9,0,56.7,5.5,82.9,16.3l0.2-0.5
			c-25.6-10.6-53.7-16.4-83.1-16.4V186.8z"/>
	</g>
	<g>
		<path class="st0" d="M193.9-0.6C128-0.6,63.8,12.1,3,37.2l-0.5,0.2l35.9,86.8l0.2,0.5l0,0l-0.3-0.8l0.4-0.2l-35.6-86
			C62,13.4,126.4-0.1,193.9-0.1v93h0.5V-0.6H193.9z"/>
		<path class="st0" d="M569.8,344.3c19.7,47.7,30.7,100,30.8,154.9h-93.7c-0.1-42.2-8.5-82.3-23.7-119l0,0c0,0,0-0.1,0-0.1
			L396.6,416c-11.1-26.7-27.3-50.8-47.4-70.9c-10-10-21.3-19.3-33.4-27.5c-12-8.1-24.9-15.2-38-20.6l-0.2,0.4l-0.5-0.2
			c-0.1,0-0.2-0.1-0.3-0.1l0.2-0.5c-25.6-10.6-53.7-16.4-83.1-16.4v-93.4c-42.2,0-82.5,8.4-119.2,23.6l-35.6-86c0,0,0,0,0,0
			l-0.4,0.2l-0.3-0.8l0.4-0.2l-35.6-86C62,13.4,126.4-0.1,193.9-0.1v93h0.5v0.5c54.7-0.1,106.9,10.9,154.5,30.7L313.3,210l0.1,0
			c0.1,0.1,0.2,0.1,0.3,0.1l-0.2,0.5c37.9,15.7,73.4,39.8,101.9,68.3l65.9-65.9l0,0c-0.1-0.1-0.2-0.2-0.3-0.3l0.3-0.4
			C444,175,399.4,145,349.9,124.5l35.9-86.6c61,25.2,115.9,62.2,161.8,108.1l0.3-0.3l0.3,0.4c0.1,0.1,0.2,0.2,0.3,0.3l-0.3,0.4
			c46,45.8,83,100.7,108.2,161.7L569.8,344.3z"/>
	</g>
	<g>
		<path class="st0" d="M3.2,961.6c58.9,24.4,123.5,37.9,191.3,37.9v-93.7c-55,0-107.5-11-155.4-30.8L3.2,961.6z"/>
		<path class="st0" d="M194.1,905.3c-53.5,0-105.5-10.4-154.8-30.8l-0.5-0.2L2.5,961.9l0.5,0.2c60.8,25.2,125.2,37.9,191.5,37.9h0.5
			v-94.7H194.1z M194,906.3V999c-65.8-0.1-129.8-12.7-190.2-37.7l35.5-85.7C88.6,895.9,140.6,906.2,194,906.3z"/>
	</g>
</g>
<g>
	<path class="st0" d="M982.7,167.9c-10.6-17.7-39.9-34.6-73.7-34.6c-43.5,0-64.3,18.2-64.3,41.3c0,27.1,31.9,34.6,69.2,39
		c64.8,8,125.1,24.8,125.1,98.9c0,69.2-61.2,98.9-130.4,98.9c-63.5,0-112.3-19.5-135.3-76.3l48.8-25.3
		c13.8,34.2,49.7,49.3,87.4,49.3c36.8,0,71.4-12.9,71.4-46.6c0-29.3-30.6-41.3-71.9-45.7c-63.5-7.5-122-24.4-122-94.1
		c0-63.9,63-90.1,120.2-90.5c48.4,0,98.5,13.8,122,61.7L982.7,167.9z"/>
	<path class="st0" d="M1139.4,123.1c0,42.2-63.9,42.2-63.9,0C1075.5,81,1139.4,81,1139.4,123.1z M1080.4,183.9v219.6h54.1V183.9
		H1080.4z"/>
	<path class="st0" d="M1355,162.6l39.9,30.2l-24.4,31.1c16.9,19.1,23.1,40.8,23.1,64.8c0,27.1-10.2,65.2-46.1,81.6
		c36.4,18.2,45.3,44.4,45.3,72.3c0,60.3-46.1,97.6-109.6,97.6s-110.9-38.6-110.9-97.6h53.7c0,28.4,26.2,47,57.2,47
		c31.1,0,55.5-16.9,55.5-47c0-30.2-28.4-43.9-55.5-43.9c-68.3,0-110.9-41.7-110.9-110s49.7-110.9,110.9-110.9
		c17.3,0,35.1,2.2,50.1,12.4L1355,162.6z M1225.9,288.6c0,38.2,25.7,60.8,57.2,60.8c31.1,0,56.8-23.1,56.8-60.8
		s-25.7-61.7-56.8-61.7C1251.6,227,1225.9,250.5,1225.9,288.6z"/>
	<path class="st0" d="M1601.7,184.8h51.9v218.7h-51l-2.7-31.9c-12.4,25.7-46.6,38.2-71,38.6c-64.8,0.4-112.7-39.5-112.7-116.3
		c0-75.4,50.1-114.9,114-114.5c29.3,0,57.2,13.8,69.7,35.5L1601.7,184.8z M1470.4,294c0,41.7,28.8,66.6,64.8,66.6
		c85.2,0,85.2-132.7,0-132.7C1499.2,227.8,1470.4,252.3,1470.4,294z"/>
	<path class="st0" d="M960.6,691.7h51.9v218.7h-51l-2.7-31.9c-12.4,25.7-46.6,38.2-71,38.6c-64.8,0.4-112.7-39.5-112.7-116.3
		c0-75.4,50.1-114.9,114-114.5c29.3,0,57.2,13.8,69.7,35.5L960.6,691.7z M829.2,800.9c0,41.7,28.8,66.6,64.8,66.6
		c85.2,0,85.2-132.7,0-132.7C858.1,734.7,829.2,759.1,829.2,800.9z"/>
	<path class="st0" d="M1425.1,752.5c1.3,78.5-46.6,158-155.3,158c-38.2,0-83.9,0-122,0V599.9c38.2,0,83.9,0,122,0
		C1376.3,599.9,1423.8,675.7,1425.1,752.5z M1205.9,854.1h63.9c70.5,0,98.5-51.5,97.2-102.1c-1.3-48.4-29.7-96.7-97.2-96.7h-63.9
		V854.1z"/>
	<path class="st0" d="M1518.7,630c0,42.2-63.9,42.2-63.9,0C1454.8,587.9,1518.7,587.9,1518.7,630z M1459.7,690.8v219.6h54.1V690.8
		H1459.7z"/>
	<path class="st0" d="M1750.3,882.5c-25.3,24.8-51.9,34.6-84.3,34.6c-63.5,0-116.3-38.2-116.3-115.8s52.8-115.8,116.3-115.8
		c31.1,0,55,8.9,79,32.4l-34.2,35.9c-12.9-11.5-28.8-17.3-43.9-17.3c-36.4,0-63,26.6-63,64.8c0,41.7,28.4,63.9,62.1,63.9
		c17.3,0,34.6-4.9,47.9-18.2L1750.3,882.5z"/>
	<path class="st0" d="M1947.8,691.7h51.9v218.7h-51l-2.7-31.9c-12.4,25.7-46.6,38.2-71,38.6c-64.8,0.4-112.7-39.5-112.7-116.3
		c0-75.4,50.1-114.9,114-114.5c29.3,0,57.2,13.8,69.7,35.5L1947.8,691.7z M1816.5,800.9c0,41.7,28.8,66.6,64.8,66.6
		c85.2,0,85.2-132.7,0-132.7C1845.3,734.7,1816.5,759.1,1816.5,800.9z"/>
</g>
</svg>
