<?xml version="1.0" encoding="utf-8"?>
<!-- Generator: Adobe Illustrator 22.0.1, SVG Export Plug-In . SVG Version: 6.00 Build 0)  -->
<svg version="1.1" id="Camada_1" xmlns="http://www.w3.org/2000/svg" xmlns:xlink="http://www.w3.org/1999/xlink" x="0px" y="0px"
	 viewBox="0 0 2000 1000" style="enable-background:new 0 0 2000 1000;" xml:space="preserve">
<style type="text/css">
	.st0{fill:#FFFFFF;}
	.st1{fill:#00467A;}
	.st2{fill:#0063AC;}
	.st3{fill:#009AD6;}
	.st4{fill:#008F3C;}
	.st5{fill:#00B037;}
	.st6{fill:#5BF067;}
</style>
<g>
	<path class="st0" d="M569.8,344.3c19.8,47.9,30.8,100.4,30.8,155.4h-93.7c0-42.4-8.4-82.8-23.7-119.6L396.6,416
		c-11.1-26.7-27.3-50.8-47.4-70.9l0,0c-10-10-21.3-19.3-33.4-27.5c-12.1-8.2-25.1-15.3-38.3-20.8c-25.7-10.7-53.9-16.5-83.5-16.5
		v-93.4c-42.2,0-82.5,8.4-119.2,23.6L39,124.1L3.2,37.7C62,13.4,126.4-0.1,193.9-0.1v93.4c54.9,0,107.2,10.9,155,30.7l-35.8,86.3
		c38,15.7,73.6,39.9,102.2,68.4l0,0l66.3-66.3c-37.4-37.4-82.1-67.6-131.7-88.1l35.9-86.6c61.1,25.3,116.1,62.4,162.1,108.5
		c46,46,83.1,101,108.5,162.1L569.8,344.3z"/>
	<path class="st0" d="M569.8,655.2l86.6,35.9c24.4-58.9,37.9-123.5,37.9-191.3h-93.7C600.6,554.8,589.6,607.3,569.8,655.2z"/>
	<path class="st0" d="M569.8,655.1c-20.6,49.6-50.7,94.3-88.1,131.7l-66.3-66.3c-28.8,28.8-63.1,52-101.3,67.8L350,875
		c-47.9,19.8-100.4,30.8-155.4,30.8v-93.7c-42.4,0-82.7-8.4-119.6-23.7l35.9-86.6c25.8,10.7,54,16.6,83.7,16.6s57.9-5.9,83.7-16.6
		l0,0c26.7-11.1,50.8-27.3,70.9-47.5v0c20.1-20.1,36.4-44.2,47.4-70.9c10.7-25.8,16.6-54.1,16.6-83.7h93.7
		c0,42.4-8.4,82.7-23.7,119.6L569.8,655.1z"/>
	<path class="st0" d="M350,875l35.9,86.6c61.1-25.3,116.1-62.4,162.1-108.5l-66.3-66.3C444.3,824.3,399.6,854.4,350,875z"/>
	<path class="st0" d="M194.5,905.8v93.7c-67.8,0-132.4-13.5-191.3-37.9L39.1,875C87,894.8,139.5,905.8,194.5,905.8z"/>
	<path class="st0" d="M914,213.6c-37.3-4.4-69.2-12-69.2-39c0-23.1,20.9-41.3,64.3-41.3c33.7,0,63,16.9,73.7,34.6l46.6-24
		c-23.5-47.9-73.7-61.7-122-61.7c-57.2,0.4-120.2,26.6-120.2,90.5c0,69.7,58.6,86.5,122,94.1c41.3,4.4,71.9,16.4,71.9,45.7
		c0,33.7-34.6,46.6-71.4,46.6c-37.7,0-73.7-15.1-87.4-49.3l-48.8,25.3c23.1,56.8,71.9,76.3,135.3,76.3c69.2,0,130.4-29.7,130.4-98.9
		C1039.1,238.5,978.7,221.6,914,213.6z"/>
	<path class="st0" d="M1075.5,123.1c0,42.2,63.9,42.2,63.9,0C1139.4,81,1075.5,81,1075.5,123.1z"/>
	<rect x="1080.4" y="183.9" class="st0" width="54.1" height="219.6"/>
	<path class="st0" d="M1283.1,489.6c-31.1,0-57.2-18.6-57.2-47h-53.7c0,59,47.5,97.6,110.9,97.6c63.4,0,109.6-37.3,109.6-97.6
		c0-28-8.9-54.1-45.3-72.3c35.9-16.4,46.1-54.6,46.1-81.6c0-24-6.2-45.7-23.1-64.8l24.4-31.1l-39.9-30.2l-21.7,27.5
		c-15.1-10.2-32.8-12.4-50.1-12.4c-61.2,0-110.9,42.6-110.9,110.9s42.6,110,110.9,110c27.1,0,55.5,13.8,55.5,43.9
		C1338.6,472.8,1314.2,489.6,1283.1,489.6z M1283.1,349.4c-31.5,0-57.2-22.6-57.2-60.8s25.7-61.7,57.2-61.7
		c31.1,0,56.8,24,56.8,61.7S1314.2,349.4,1283.1,349.4z"/>
	<path class="st0" d="M1599.9,371.6l2.7,31.9h51V184.8h-51.9l-1.8,30.2c-12.4-21.7-40.4-35.5-69.7-35.5c-63.9-0.4-114,39-114,114.5
		c0,76.8,47.9,116.7,112.7,116.3C1553.3,409.8,1587.5,397.3,1599.9,371.6z M1535.1,360.5c-35.9,0-64.8-24.8-64.8-66.6
		c0-41.7,28.8-66.1,64.8-66.1C1620.3,227.8,1620.3,360.5,1535.1,360.5z"/>
	<path class="st0" d="M958.8,721.9c-12.4-21.7-40.4-35.5-69.7-35.5c-63.9-0.4-114,39-114,114.5c0,76.8,47.9,116.7,112.7,116.3
		c24.4-0.4,58.6-12.9,71-38.6l2.7,31.9h51V691.7h-51.9L958.8,721.9z M894,867.4c-35.9,0-64.8-24.8-64.8-66.6
		c0-41.7,28.8-66.1,64.8-66.1C979.2,734.7,979.2,867.4,894,867.4z"/>
	<path class="st0" d="M1269.8,599.9c-38.2,0-83.9,0-122,0v310.6c38.2,0,83.9,0,122,0c108.7,0,156.6-79.4,155.3-158
		C1423.8,675.7,1376.3,599.9,1269.8,599.9z M1269.8,854.1h-63.9V655.3h63.9c67.4,0,95.8,48.4,97.2,96.7
		C1368.3,802.6,1340.4,854.1,1269.8,854.1z"/>
	<path class="st0" d="M1454.8,630c0,42.2,63.9,42.2,63.9,0C1518.7,587.9,1454.8,587.9,1454.8,630z"/>
	<rect x="1459.7" y="690.8" class="st0" width="54.1" height="219.6"/>
	<path class="st0" d="M1666,865.2c-33.7,0-62.1-22.2-62.1-63.9c0-38.2,26.6-64.8,63-64.8c15.1,0,31.1,5.8,43.9,17.3l34.2-35.9
		c-24-23.5-47.9-32.4-79-32.4c-63.5,0-116.3,38.2-116.3,115.8c0,77.6,52.8,115.8,116.3,115.8c32.4,0,59-9.8,84.3-34.6L1714,847
		C1700.6,860.3,1683.3,865.2,1666,865.2z"/>
	<path class="st0" d="M1947.8,691.7l-1.8,30.2c-12.4-21.7-40.4-35.5-69.7-35.5c-63.9-0.4-114,39-114,114.5
		c0,76.8,47.9,116.7,112.7,116.3c24.4-0.4,58.6-12.9,71-38.6l2.7,31.9h51V691.7H1947.8z M1881.2,867.4c-35.9,0-64.8-24.8-64.8-66.6
		c0-41.7,28.8-66.1,64.8-66.1C1966.4,734.7,1966.4,867.4,1881.2,867.4z"/>
</g>
<text transform="matrix(1 0 0 1 1685.6249 -744.1855)"><tspan x="0" y="0" class="st2" style="font-family:'NexaBold'; font-size:418.1396px;">Siga</tspan><tspan x="0" y="477.7" class="st2" style="font-family:'NexaBold'; font-size:418.1396px;">a Dica</tspan></text>
<rect x="795.9" y="-362.5" class="st1" width="138" height="138"/>
<rect x="933.9" y="-362.5" class="st2" width="138" height="138"/>
<rect x="1071.9" y="-362.5" class="st3" width="138" height="138"/>
<rect x="795.9" y="-224.5" class="st4" width="138" height="138"/>
<rect x="933.9" y="-224.5" class="st5" width="138" height="138"/>
<rect x="1071.9" y="-224.5" class="st6" width="138" height="138"/>
</svg>
