<?xml version="1.0" encoding="utf-8"?>
<!-- Generator: Adobe Illustrator 22.0.1, SVG Export Plug-In . SVG Version: 6.00 Build 0)  -->
<svg version="1.1" id="Camada_1" xmlns="http://www.w3.org/2000/svg" xmlns:xlink="http://www.w3.org/1999/xlink" x="0px" y="0px"
	 viewBox="0 0 1000 1000" style="enable-background:new 0 0 1000 1000;" xml:space="preserve">
<style type="text/css">
	.st0{fill:#5BF067;}
	.st1{fill:#009AD6;}
	.st2{fill:#3DACCB;}
	.st3{fill:#0063AC;}
	.st4{fill:#00467A;}
</style>
<g>
	<g>
		<path class="st0" d="M703.2,192.7l-57.4,57.4c-32.4-32.4-71.1-58.5-114.1-76.3l31.1-75C615.8,120.7,663.4,152.8,703.2,192.7z"/>
		<path class="st0" d="M722.2,633.3c-17.8,43-43.9,81.7-76.3,114L588.5,690c24.9-24.9,45-54.7,58.7-87.7L722.2,633.3z"/>
		<path class="st0" d="M397.2,688.1v81.2c-36.7,0-71.7-7.3-103.5-20.5l31.1-75C347,683,371.5,688.1,397.2,688.1z"/>
	</g>
	<g>
		<path class="st1" d="M830,498.7c0,58.7-11.7,114.6-32.8,165.7l-75-31.1c17.2-41.5,26.7-86.9,26.7-134.6H830z"/>
		<path class="st1" d="M396.7,65.9v80.9c-47.5,0-92.9,9.5-134.2,26.6l-31-74.8C282.4,77.5,338.2,65.9,396.7,65.9z"/>
		<path class="st1" d="M797.2,333l-75,31.1l-75,31.1c-13.7-33.1-33.8-62.8-58.7-87.7l114.8-114.8C743.1,232.5,775.2,280.1,797.2,333
			z"/>
		<path class="st1" d="M588.5,690c-24.9,24.9-54.7,45-87.7,58.7l-31.1-75c23.1-9.6,44-23.6,61.4-41.1L588.5,690z"/>
		<path class="st1" d="M499.9,248.2l-31,74.8c-22.3-9.2-46.7-14.3-72.3-14.3v-80.9C433.3,227.7,468.1,235,499.9,248.2z"/>
	</g>
	<g>
		<g>
			<path class="st2" d="M347.3,915c1.9,0,1.9-3,0-3C345.3,912,345.3,915,347.3,915L347.3,915z"/>
		</g>
	</g>
	<g>
		<path class="st3" d="M397.2,850.4v81.2c-58.7,0-114.6-11.7-165.7-32.8l31.1-75C304,840.9,349.5,850.4,397.2,850.4z"/>
		<path class="st3" d="M530.9,173.4l-31,74.8c-31.8-13.2-66.7-20.5-103.2-20.5c-36.6,0-71.4,7.3-103.2,20.5l-31-74.8
			c41.3-17.1,86.7-26.6,134.2-26.6C444.2,146.8,489.6,156.3,530.9,173.4z"/>
		<path class="st3" d="M667.7,498.7c0,36.7-7.3,71.7-20.5,103.5c-13.7,33.1-33.8,62.8-58.7,87.7l-57.4-57.4
			c17.4-17.4,31.5-38.3,41.1-61.4c9.3-22.3,14.4-46.8,14.4-72.5H667.7z"/>
		<path class="st3" d="M703.2,804.7c-39.9,39.9-87.5,72-140.4,93.9l-31.1-75c43-17.8,81.7-43.9,114.1-76.3L703.2,804.7z"/>
	</g>
	<g>
		<path class="st4" d="M531.8,823.7c-41.5,17.2-86.9,26.7-134.6,26.7V688.1c25.7,0,50.2-5.1,72.5-14.4"/>
		<path class="st4" d="M748.8,498.7h-81.2c0-36.7-7.3-71.7-20.5-103.5l75-31.1C739.4,405.6,748.8,451,748.8,498.7z"/>
		<path class="st4" d="M647.2,395.2l-75,31.1c-9.6-23.1-23.6-44-41.1-61.4l0,0c-17.4-17.3-39.2-32.3-62.2-41.8l31-74.8
			c32.9,13.6,63.7,34.5,88.5,59.3l0,0C613.4,332.3,633.5,362.1,647.2,395.2z"/>
	</g>
</g>
</svg>
