<?xml version="1.0" encoding="utf-8"?>
<!-- Generator: Adobe Illustrator 22.0.1, SVG Export Plug-In . SVG Version: 6.00 Build 0)  -->
<svg version="1.1" id="Camada_1" xmlns="http://www.w3.org/2000/svg" xmlns:xlink="http://www.w3.org/1999/xlink" x="0px" y="0px"
	 viewBox="0 0 692 1000" style="enable-background:new 0 0 692 1000;" xml:space="preserve">
<style type="text/css">
	.st0{fill:#FFFFFF;}
</style>
<g>
	<path class="st0" d="M36.1,876c47.9,19.8,100.4,30.8,155.4,30.8v93.7c-67.8,0-132.4-13.5-191.3-37.9L36.1,876z"/>
	<path class="st0" d="M691.3,500.7c0,67.8-13.5,132.4-37.9,191.3l-86.6-35.9c19.8-47.9,30.8-100.4,30.8-155.4H691.3z"/>
	<path class="st0" d="M566.8,345.3c19.8,47.9,30.8,100.4,30.8,155.4h-93.7c0-42.4-8.4-82.8-23.7-119.6L393.6,417
		c-11.1-26.7-27.3-50.8-47.4-70.9l0,0c-10-10-21.3-19.3-33.4-27.5c-12.1-8.2-25.1-15.3-38.3-20.8c-25.7-10.7-53.9-16.5-83.5-16.5
		v-93.4c-42.2,0-82.5,8.4-119.2,23.6L36,125.1L0.2,38.7C59,14.4,123.4,0.9,190.9,0.9v93.4c54.9,0,107.2,10.9,155,30.7l-35.8,86.3
		c38,15.7,73.6,39.9,102.2,68.4l0,0l66.3-66.3c-37.4-37.4-82.1-67.6-131.7-88.1l35.9-86.6c61.1,25.3,116.1,62.4,162.1,108.5
		c46,46,83.1,101,108.5,162.1L566.8,345.3z"/>
	<path class="st0" d="M478.7,787.8l66.3,66.3c-46,46-101,83.1-162.1,108.5L347,876c-47.9,19.8-100.4,30.8-155.4,30.8v-93.7
		c-42.4,0-82.7-8.4-119.6-23.7l35.9-86.6c12.9,5.3,26.4,9.5,40.4,12.3c14,2.8,28.5,4.3,43.3,4.3c29.6,0,57.9-5.9,83.7-16.6l0,0
		l35.9,86.6c38.2-15.8,72.5-39,101.3-67.8l-66.3-66.3c20.1-20.1,36.4-44.2,47.4-70.9c10.7-25.8,16.6-54.1,16.6-83.7h93.7
		c0,42.4-8.4,82.7-23.7,119.6l86.6,35.9C546.2,705.8,516.1,750.4,478.7,787.8z"/>
</g>
</svg>
