<?xml version="1.0" encoding="utf-8"?>
<!-- Generator: Adobe Illustrator 22.0.0, SVG Export Plug-In . SVG Version: 6.00 Build 0)  -->
<svg version="1.1" id="Camada_1" xmlns="http://www.w3.org/2000/svg" xmlns:xlink="http://www.w3.org/1999/xlink" x="0px" y="0px"
	 viewBox="0 0 692 1000" style="enable-background:new 0 0 692 1000;" xml:space="preserve">
<style type="text/css">
	.st0{fill:#5BF067;}
	.st1{fill:#009AD6;}
	.st2{fill:#3DACCB;}
	.st3{fill:#0063AC;}
	.st4{fill:#00467A;}
</style>
<g>
	<g>
		<path class="st0" d="M544.9,147.3l-66.3,66.3c-37.4-37.4-82.1-67.5-131.7-88.1l35.9-86.6C443.9,64.2,498.9,101.3,544.9,147.3z"/>
		<path class="st0" d="M566.8,656.1c-20.6,49.6-50.7,94.3-88.1,131.7l-66.3-66.3c28.8-28.8,52-63.1,67.8-101.3L566.8,656.1z"/>
		<path class="st0" d="M191.5,719.4v93.7c-42.4,0-82.7-8.4-119.6-23.7l35.9-86.6C133.6,713.5,161.9,719.4,191.5,719.4z"/>
	</g>
	<g>
		<path class="st1" d="M691.3,500.7c0,67.8-13.5,132.4-37.9,191.3l-86.6-35.9c19.9-47.9,30.8-100.4,30.8-155.4H691.3z"/>
		<path class="st1" d="M190.9,0.9v93.4c-54.9,0-107.2,10.9-155,30.7L0.2,38.7C59,14.4,123.4,0.9,190.9,0.9z"/>
		<path class="st1" d="M653.4,309.4l-86.6,35.9l-86.6,35.9c-15.8-38.2-39-72.5-67.8-101.3l132.5-132.5
			C591,193.3,628.1,248.3,653.4,309.4z"/>
		<path class="st1" d="M310.1,211.4l-35.8,86.3c-25.7-10.7-53.9-16.5-83.4-16.5v-93.4C233.2,187.8,273.4,196.2,310.1,211.4z"/>
	</g>
	<g>
		<g>
			<path class="st2" d="M133.9,981.2c1.9,0,1.9-3,0-3C131.9,978.2,131.9,981.2,133.9,981.2L133.9,981.2z"/>
		</g>
	</g>
	<g>
		<path class="st3" d="M191.5,906.8v93.7c-67.8,0-132.4-13.5-191.3-37.9L36.1,876C84,895.8,136.5,906.8,191.5,906.8z"/>
		<path class="st3" d="M345.9,125.1l-35.8,86.3c-36.7-15.2-77-23.6-119.2-23.6c-42.2,0-82.5,8.4-119.2,23.6L36,125.1
			c47.7-19.8,100.1-30.7,155-30.7C245.8,94.3,298.2,105.3,345.9,125.1z"/>
		<path class="st3" d="M503.9,500.7c0,42.4-8.4,82.7-23.7,119.6c-15.8,38.2-39,72.5-67.8,101.3l-66.3-66.3
			c20.1-20.1,36.4-44.2,47.4-70.9c10.7-25.8,16.6-54.1,16.6-83.7H503.9z"/>
		<path class="st3" d="M544.9,854.1c-46,46-101,83.1-162.1,108.5L347,876c49.6-20.6,94.3-50.7,131.7-88.1L544.9,854.1z"/>
	</g>
	<g>
		<path class="st4" d="M597.6,500.7h-93.7c0-42.4-8.4-82.7-23.7-119.6l86.6-35.9C586.6,393.1,597.6,445.6,597.6,500.7z"/>
		<path class="st4" d="M480.2,381.1L393.6,417c-11.1-26.7-27.3-50.8-47.4-70.9l0,0c-20-20-45.2-37.3-71.8-48.3l35.8-86.3
			c38,15.7,73.6,39.9,102.2,68.4l0,0C441.2,308.6,464.4,343,480.2,381.1z"/>
		<path class="st1" d="M478.7,787.8c-37.4,37.4-82.1,67.5-131.7,88.1l-35.9-86.6c38.2-15.8,72.5-39,101.3-67.8L478.7,787.8z"/>
		<path class="st4" d="M347,876c-47.9,19.8-100.4,30.8-155.4,30.8V719.4c29.6,0,57.9-5.9,83.7-16.6l0,0l35.9,86.6L347,876z"/>
	</g>
</g>
</svg>
